#N canvas 807 453 854 541 10;
#X obj 40 160 *~;
#X obj 40 100 osc~ 261.63;
#X obj 41 268 *~;
#X obj 41 208 osc~ 329.63;
#X obj 188 159 *~;
#X obj 188 99 osc~ 392;
#X obj 190 270 *~;
#X obj 190 210 osc~ 493.88;
#X obj 324 157 *~;
#X obj 324 97 osc~ 587.33;
#X obj 324 271 *~;
#X obj 324 211 osc~ 698.46;
#X obj 580 160 *~;
#X obj 580 100 osc~ 880;
#X obj 670 160 *~;
#X obj 670 100 osc~ 1046.5;
#X text 39 15 Hello Chord!;
#X text 39 25 ============;
#X text 39 35 use to test knobs;
#X obj 231 415 *~ 0.1;
#X obj 231 463 dac~ 1;
#X obj 55 128 r Knob1 @hv_param;
#X obj 57 233 r Knob2 @hv_param;
#X obj 203 126 r Knob3 @hv_param;
#X obj 231 372 *~ 0.333;
#X obj 205 239 r Knob4 @hv_param;
#X obj 339 125 r Knob5 @hv_param;
#X obj 340 240 r Knob6 @hv_param;
#X connect 0 0 24 0;
#X connect 1 0 0 0;
#X connect 2 0 24 0;
#X connect 3 0 2 0;
#X connect 4 0 24 0;
#X connect 5 0 4 0;
#X connect 6 0 24 0;
#X connect 7 0 6 0;
#X connect 8 0 24 0;
#X connect 9 0 8 0;
#X connect 10 0 24 0;
#X connect 11 0 10 0;
#X connect 13 0 12 0;
#X connect 15 0 14 0;
#X connect 19 0 20 0;
#X connect 21 0 0 1;
#X connect 22 0 2 1;
#X connect 23 0 4 1;
#X connect 24 0 19 0;
#X connect 25 0 6 1;
#X connect 26 0 8 1;
#X connect 27 0 10 1;
